<?xml version="1.0" encoding="UTF-8" standalone="no"?>
<svg
   xmlns:dc="http://purl.org/dc/elements/1.1/"
   xmlns:cc="http://creativecommons.org/ns#"
   xmlns:rdf="http://www.w3.org/1999/02/22-rdf-syntax-ns#"
   xmlns:svg="http://www.w3.org/2000/svg"
   xmlns="http://www.w3.org/2000/svg"
   id="svg8"
   version="1.1"
   viewBox="0 0 66.832092 15.941145"
   height="15.941145mm"
   width="66.832092mm">
  <defs
     id="defs2" />
  <metadata
     id="metadata5">
    <rdf:RDF>
      <cc:Work
         rdf:about="">
        <dc:format>image/svg+xml</dc:format>
        <dc:type
           rdf:resource="http://purl.org/dc/dcmitype/StillImage" />
        <dc:title></dc:title>
      </cc:Work>
    </rdf:RDF>
  </metadata>
  <g
     transform="translate(-22.490696,-27.179511)"
     id="layer1">
    <path
       d="m 33.636269,39.714146 h -1.744596 l -1.207162,-3.431315 h -5.324739 l -1.207162,3.431315 h -1.661914 l 4.48138,-12.311393 h 2.182813 z m -3.45612,-4.836914 -2.158008,-6.044075 -2.166275,6.044075 z"
       style="font-style:normal;font-variant:normal;font-weight:normal;font-stretch:normal;font-size:16.93333244px;line-height:125%;font-family:Verdana;-inkscape-font-specification:Verdana;text-align:start;letter-spacing:0px;word-spacing:0px;writing-mode:lr-tb;text-anchor:start;fill:#ff9900;fill-opacity:1;stroke:none;stroke-width:0.26458332px;stroke-linecap:butt;stroke-linejoin:miter;stroke-opacity:1"
       id="path1874" />
    <path
       d="M 49.833729,27.402753 46.633925,39.714146 H 44.79011 L 42.202154,29.494615 39.672076,39.714146 H 37.869602 L 34.61192,27.402753 h 1.67845 l 2.587956,10.236067 2.546615,-10.236067 h 1.661914 l 2.571419,10.335286 2.571419,-10.335286 z"
       style="font-style:normal;font-variant:normal;font-weight:normal;font-stretch:normal;font-size:16.93333244px;line-height:125%;font-family:Verdana;-inkscape-font-specification:Verdana;text-align:start;letter-spacing:0px;word-spacing:0px;writing-mode:lr-tb;text-anchor:start;fill:#ff9900;fill-opacity:1;stroke:none;stroke-width:0.26458332px;stroke-linecap:butt;stroke-linejoin:miter;stroke-opacity:1"
       id="path1876" />
    <path
       d="m 71.81895,34.984719 q 0,1.124479 -0.322461,2.058789 -0.32246,0.926041 -0.909505,1.570963 -0.545703,0.611849 -1.289843,0.950847 -0.735873,0.330729 -1.562696,0.330729 -0.719335,0 -1.30638,-0.157097 -0.578776,-0.157096 -1.182356,-0.487825 v 3.869531 H 63.691282 V 30.478534 h 1.554427 v 0.967383 q 0.620117,-0.520898 1.389062,-0.868164 0.777213,-0.355534 1.653646,-0.355534 1.670182,0 2.596224,1.265039 0.934309,1.256771 0.934309,3.497461 z m -1.604036,0.04134 q 0,-1.670182 -0.570508,-2.497005 -0.570508,-0.826823 -1.752864,-0.826823 -0.669727,0 -1.347722,0.289388 -0.677994,0.289388 -1.298111,0.760677 v 5.233789 q 0.661458,0.297656 1.132747,0.405143 0.479557,0.107487 1.083138,0.107487 1.298112,0 2.025716,-0.876432 0.727604,-0.876432 0.727604,-2.596224 z"
       style="font-style:normal;font-variant:normal;font-weight:normal;font-stretch:normal;font-size:16.93333244px;line-height:125%;font-family:Verdana;-inkscape-font-specification:Verdana;text-align:start;letter-spacing:0px;word-spacing:0px;writing-mode:lr-tb;text-anchor:start;fill:#000000;fill-opacity:1;stroke:none;stroke-width:0.26458332px;stroke-linecap:butt;stroke-linejoin:miter;stroke-opacity:1"
       id="path1880" />
    <path
       d="m 82.112894,35.100474 q 0,2.257226 -1.157552,3.563607 -1.157552,1.30638 -3.100586,1.30638 -1.95957,0 -3.117122,-1.30638 -1.149284,-1.306381 -1.149284,-3.563607 0,-2.257226 1.149284,-3.563607 1.157552,-1.314648 3.117122,-1.314648 1.943034,0 3.100586,1.314648 1.157552,1.306381 1.157552,3.563607 z m -1.604036,0 q 0,-1.794206 -0.7028,-2.66237 -0.702799,-0.876432 -1.951302,-0.876432 -1.265039,0 -1.967838,0.876432 -0.694532,0.868164 -0.694532,2.66237 0,1.736328 0.7028,2.637565 0.702799,0.892969 1.95957,0.892969 1.240234,0 1.943034,-0.884701 0.711068,-0.892968 0.711068,-2.645833 z"
       style="font-style:normal;font-variant:normal;font-weight:normal;font-stretch:normal;font-size:16.93333244px;line-height:125%;font-family:Verdana;-inkscape-font-specification:Verdana;text-align:start;letter-spacing:0px;word-spacing:0px;writing-mode:lr-tb;text-anchor:start;fill:#000000;fill-opacity:1;stroke:none;stroke-width:0.26458332px;stroke-linecap:butt;stroke-linejoin:miter;stroke-opacity:1"
       id="path1882" />
    <path
       d="m 89.322792,39.631463 q -0.438216,0.115756 -0.959115,0.19017 -0.51263,0.07441 -0.917773,0.07441 -1.413867,0 -2.14974,-0.760677 -0.735872,-0.760677 -0.735872,-2.439128 V 31.78491 h -1.050065 v -1.30638 h 1.050065 v -2.654101 h 1.554427 v 2.654101 h 3.208073 v 1.30638 h -3.208073 v 4.208529 q 0,0.727604 0.03307,1.141015 0.03307,0.405144 0.23151,0.760677 0.181901,0.330729 0.496094,0.487826 0.322461,0.148828 0.975651,0.148828 0.380339,0 0.79375,-0.107487 0.413411,-0.115755 0.595312,-0.190169 h 0.08268 z"
       style="font-style:normal;font-variant:normal;font-weight:normal;font-stretch:normal;font-size:16.93333244px;line-height:125%;font-family:Verdana;-inkscape-font-specification:Verdana;text-align:start;letter-spacing:0px;word-spacing:0px;writing-mode:lr-tb;text-anchor:start;fill:#000000;fill-opacity:1;stroke:none;stroke-width:0.26458332px;stroke-linecap:butt;stroke-linejoin:miter;stroke-opacity:1"
       id="path1884" />
    <text
       id="text1076"
       y="44.651276"
       x="50.513409"
       style="font-style:normal;font-variant:normal;font-weight:normal;font-stretch:normal;font-size:10.58333302px;line-height:125%;font-family:Lato;-inkscape-font-specification:Lato;text-align:start;letter-spacing:0px;word-spacing:0px;writing-mode:lr-tb;text-anchor:start;fill:#000000;fill-opacity:1;stroke:none;stroke-width:0.26458332px;stroke-linecap:butt;stroke-linejoin:miter;stroke-opacity:1"
       xml:space="preserve"><tspan
         style="font-style:normal;font-variant:normal;font-weight:normal;font-stretch:normal;font-family:Lato;-inkscape-font-specification:Lato;stroke-width:0.26458332px"
         y="54.493774"
         x="50.513409"
         id="tspan1074" /></text>
    <g
       transform="translate(2.1166667,-0.00413119)"
       id="g1849">
      <text
         xml:space="preserve"
         style="font-style:normal;font-variant:normal;font-weight:normal;font-stretch:normal;font-size:16.93333244px;line-height:125%;font-family:Verdana;-inkscape-font-specification:Verdana;text-align:start;letter-spacing:0px;word-spacing:0px;writing-mode:lr-tb;text-anchor:start;fill:#ff9900;fill-opacity:1;stroke:none;stroke-width:0.26458332px;stroke-linecap:butt;stroke-linejoin:miter;stroke-opacity:1"
         x="48.46534"
         y="39.718277"
         id="text1836"><tspan
           id="tspan1834"
           x="48.46534"
           y="39.718277"
           style="font-style:normal;font-variant:normal;font-weight:normal;font-stretch:normal;font-size:16.93333244px;font-family:Verdana;-inkscape-font-specification:Verdana;fill:#ff9900;fill-opacity:1;stroke-width:0.26458332px">S</tspan></text>
      <g
         aria-label="S"
         style="font-style:normal;font-variant:normal;font-weight:normal;font-stretch:normal;font-size:16.93333244px;line-height:125%;font-family:Verdana;-inkscape-font-specification:Verdana;text-align:start;letter-spacing:0px;word-spacing:0px;writing-mode:lr-tb;text-anchor:start;fill:#232f3e;fill-opacity:1;stroke:none;stroke-width:0.26458332px;stroke-linecap:butt;stroke-linejoin:miter;stroke-opacity:1"
         id="text1840">
        <path
           d="m 59.065209,36.20428 c 0,0.479557 -0.112999,0.953602 -0.338997,1.422135 -0.220487,0.468533 -0.531923,0.865408 -0.93431,1.190625 -0.440973,0.352778 -0.956359,0.628386 -1.546159,0.826823 -0.584288,0.198437 -1.289844,0.297656 -2.116667,0.297656 -0.887456,0 -1.686718,-0.08268 -2.397786,-0.248047 -0.705555,-0.165365 -1.424891,-0.410655 -2.158008,-0.735872 v -2.050521 h 0.115756 c 0.622873,0.518143 1.342208,0.917774 2.158007,1.198893 0.815799,0.28112 1.581988,0.42168 2.298568,0.42168 1.014236,0 1.802474,-0.190169 2.364713,-0.570508 0.567752,-0.380339 0.851628,-0.887457 0.851628,-1.521354 0,-0.545703 -0.135048,-0.94809 -0.405143,-1.207161 -0.264583,-0.259071 -0.669727,-0.460265 -1.21543,-0.603581 -0.413411,-0.110243 -0.862652,-0.201193 -1.347721,-0.272851 -0.479557,-0.07166 -0.989432,-0.162609 -1.529623,-0.272852 l 1.785938,-1.372526 c 0.650434,0.110243 1.201649,0.223242 1.653645,0.338997 0.915017,0.242535 1.604037,0.609093 2.067058,1.099675 0.463021,0.490581 0.694531,1.176844 0.694531,2.058789 z"
           style="font-style:normal;font-variant:normal;font-weight:normal;font-stretch:normal;font-size:16.93333244px;font-family:Verdana;-inkscape-font-specification:Verdana;fill:#232f3e;fill-opacity:1;stroke-width:0.26458332px"
           id="path1842" />
      </g>
    </g>
  </g>
</svg>
